<?xml version="1.0" encoding="utf-8"?>
<!-- Generator: Adobe Illustrator 19.0.0, SVG Export Plug-In . SVG Version: 6.00 Build 0)  -->
<svg version="1.1" id="Layer_2" xmlns="http://www.w3.org/2000/svg" xmlns:xlink="http://www.w3.org/1999/xlink" x="0px" y="0px"
	 viewBox="-204 433 150 96" style="enable-background:new -204 433 150 96;" xml:space="preserve">
<style type="text/css">
	.st0{fill:#FFCC05;}
	.st1{enable-background:new    ;}
</style>
<g id="XMLID_793_">
	<g id="XMLID_784_">
		<path id="XMLID_835_" class="st0" d="M-61.2,454.8v50.1h-22.6v-50.1H-61.2 M-57.9,447.8h-29.3c-2,0-3.6,1.6-3.6,3.6v56.8
			c0,2,1.6,3.6,3.6,3.6h29.3c2,0,3.6-1.6,3.6-3.6v-56.8C-54.2,449.4-55.9,447.8-57.9,447.8L-57.9,447.8z"/>
	</g>
	<path id="XMLID_783_" class="st0" d="M-98.4,457.3h-78c-0.8,0-1.4-0.6-1.4-1.4v-6.7c0-0.8,0.6-1.4,1.4-1.4h78
		c0.8,0,1.4,0.6,1.4,1.4v6.7C-96.9,456.7-97.6,457.3-98.4,457.3z"/>
	<path id="XMLID_782_" class="st0" d="M-98.4,485.2h-78c-0.8,0-1.4-0.6-1.4-1.4v-6.7c0-0.8,0.6-1.4,1.4-1.4h78
		c0.8,0,1.4,0.6,1.4,1.4v6.7C-96.9,484.5-97.6,485.2-98.4,485.2z"/>
	<path id="XMLID_781_" class="st0" d="M-98.4,511.6h-78c-0.8,0-1.4-0.6-1.4-1.4v-6.7c0-0.8,0.6-1.4,1.4-1.4h78
		c0.8,0,1.4,0.6,1.4,1.4v6.7C-96.9,511-97.6,511.6-98.4,511.6z"/>
	<g class="st1">
		<path class="st0" d="M-198.7,455.9l-1.1,3.9h-3.6l4.7-15.3h4.5l4.7,15.3h-3.7l-1.2-3.9H-198.7z M-194.9,453.3l-1-3.2
			c-0.3-0.9-0.5-2-0.8-2.9h0c-0.2,0.9-0.5,2.1-0.7,2.9l-0.9,3.2H-194.9z"/>
		<path class="st0" d="M-187.8,458c0-1.2,0.8-2.1,2-2.1c1.2,0,2,0.9,2,2.1c0,1.2-0.8,2.1-2,2.1C-186.9,460-187.8,459.2-187.8,458z"
			/>
	</g>
	<g class="st1">
		<path class="st0" d="M-202.3,471.9c0.9-0.2,2.7-0.3,4.5-0.3c2.1,0,3.4,0.2,4.5,0.9c1.1,0.6,1.8,1.6,1.8,3c0,1.4-0.8,2.6-2.5,3.3v0
			c1.7,0.5,3,1.8,3,3.8c0,1.4-0.6,2.5-1.6,3.2c-1.1,0.9-3,1.4-6,1.4c-1.7,0-3-0.1-3.7-0.2V471.9z M-198.9,477.8h1.1
			c1.8,0,2.8-0.7,2.8-1.9c0-1.2-0.9-1.8-2.4-1.8c-0.7,0-1.2,0-1.5,0.1V477.8z M-198.9,484.6c0.3,0,0.7,0,1.3,0
			c1.6,0,2.9-0.6,2.9-2.2c0-1.5-1.4-2.2-3.1-2.2h-1.2V484.6z"/>
		<path class="st0" d="M-189.3,485.2c0-1.2,0.8-2.1,2-2.1c1.2,0,2,0.9,2,2.1c0,1.2-0.8,2.1-2,2.1
			C-188.5,487.2-189.3,486.4-189.3,485.2z"/>
	</g>
	<g class="st1">
		<path class="st0" d="M-191.1,513.8c-0.6,0.3-2.1,0.7-3.9,0.7c-5.3,0-8-3.3-8-7.6c0-5.2,3.7-8.1,8.3-8.1c1.8,0,3.1,0.4,3.8,0.7
			l-0.7,2.7c-0.7-0.3-1.7-0.6-2.9-0.6c-2.7,0-4.9,1.7-4.9,5.1c0,3.1,1.8,5,4.9,5c1,0,2.2-0.2,2.9-0.5L-191.1,513.8z"/>
		<path class="st0" d="M-189.2,512.4c0-1.2,0.8-2.1,2-2.1c1.2,0,2,0.9,2,2.1c0,1.2-0.8,2.1-2,2.1
			C-188.3,514.4-189.2,513.6-189.2,512.4z"/>
	</g>
	<g id="XMLID_775_">
		<path id="XMLID_777_" class="st0" d="M-83.5,497.6c0,0,0-8.1,0-10c-0.6,0.3-1.1,0.6-1.5,0.9c-0.9,0.5-1.6,0.4-2-0.3
			c-0.4-0.7-0.1-1.3,0.8-1.9c2.3-1.3,4.7-2.7,7-4c0.5-0.3,0.7-0.6,0.7-1.2c0-2.3,0-4.6,0-6.9c0-0.3,0-0.5,0-0.8c4.2,0,8.2,0,12.4,0
			c0,0.4,0,0.8,0,1.2c0,2.2,0,4.4,0,6.7c0,0.6,0.2,0.8,0.7,1.1c2.3,1.3,4.6,2.6,7,3.9c0.1,0.1,0.3,0.1,0.4,0.2
			c0.6,0.4,0.8,1.1,0.5,1.7s-1,0.8-1.6,0.4c-0.6-0.3-1.2-0.6-1.9-1c0,2,0,10,0,10l-7.3-1.8c0,0,0-4.9-0.1-6
			c-0.1-0.7-0.2-1.4-0.5-2.1c-0.7-1.5-2.5-2.3-4-1.9c-1.8,0.4-3,1.8-3,3.7c0,1.2,0,6.2,0,6.2L-83.5,497.6z M-69.8,478.3
			c0-1.4-1.2-2.6-2.6-2.6s-2.6,1.2-2.6,2.6s1.2,2.6,2.6,2.5C-70.9,480.9-69.8,479.7-69.8,478.3z"/>
		<path id="XMLID_776_" class="st0" d="M-66.3,472.1c-4.1,0-8.1,0-12.3,0c2.1-3.6,4.1-7.1,6.1-10.7
			C-70.3,464.9-68.3,468.5-66.3,472.1z"/>
	</g>
	<ellipse id="XMLID_774_" class="st0" cx="-72.5" cy="502.6" rx="18.3" ry="7.3"/>
</g>
</svg>
